<?xml version="1.0" standalone="no"?>
<!DOCTYPE svg PUBLIC "-//W3C//DTD SVG 20010904//EN"
 "http://www.w3.org/TR/2001/REC-SVG-20010904/DTD/svg10.dtd">
<svg version="1.0" xmlns="http://www.w3.org/2000/svg"
 width="318.000000pt" height="202.000000pt" viewBox="0 0 318.000000 202.000000"
 preserveAspectRatio="xMidYMid meet">

<g transform="translate(0.000000,202.000000) scale(0.100000,-0.100000)"
fill="#000000" stroke="none">
<path d="M1730 1805 c0 -12 8 -16 33 -13 17 2 32 8 32 13 0 6 -15 11 -32 13
-25 3 -33 -1 -33 -13z"/>
<path d="M2417 1806 c-52 -19 -82 -49 -96 -95 -16 -53 -16 -954 0 -1002 7 -19
21 -44 32 -56 24 -27 94 -55 128 -52 13 1 48 1 77 1 l52 -2 0 -215 0 -215 40
0 40 0 0 89 0 89 93 4 c105 4 149 23 180 75 17 29 18 69 17 659 0 701 3 666
-70 709 -32 18 -54 20 -245 22 -161 2 -219 0 -248 -11z m193 -596 l0 -520 -80
0 c-73 0 -83 3 -105 25 l-25 24 0 471 0 471 25 24 c22 22 32 25 105 25 l80 0
0 -520z m261 501 l24 -19 0 -607 0 -607 -24 -19 c-18 -15 -39 -19 -102 -19
l-79 0 0 645 0 645 79 0 c63 0 84 -4 102 -19z"/>
<path d="M203 1768 c-12 -6 -27 -23 -33 -37 -27 -67 45 -126 111 -90 28 15 14
30 -18 18 -52 -19 -99 47 -58 81 9 8 29 10 50 7 40 -6 55 7 26 22 -24 13 -49
13 -78 -1z"/>
<path d="M310 1765 c0 -9 9 -15 25 -15 24 0 25 -3 25 -60 0 -47 3 -60 15 -60
12 0 15 13 15 60 0 53 2 60 20 60 11 0 20 7 20 15 0 12 -13 15 -60 15 -47 0
-60 -3 -60 -15z"/>
<path d="M450 1735 c0 -36 5 -48 25 -61 14 -9 32 -13 45 -9 24 7 27 -7 5 -25
-12 -10 -21 -10 -42 -1 -32 15 -45 4 -19 -15 30 -21 72 -17 90 8 22 31 22 148
1 148 -11 0 -15 -11 -15 -40 0 -70 -62 -67 -68 4 -5 51 -22 45 -22 -9z"/>
<path d="M620 1760 c-13 -13 -20 -33 -20 -59 0 -22 -4 -43 -10 -46 -16 -10
-12 -55 5 -55 8 0 15 7 15 15 0 12 13 15 55 15 42 0 55 -3 55 -15 0 -8 5 -15
10 -15 22 0 -2 149 -27 168 -25 18 -60 15 -83 -8z m75 -60 c0 -43 -1 -45 -30
-45 -27 0 -30 4 -33 33 -5 50 4 64 35 60 26 -3 28 -6 28 -48z"/>
<path d="M760 1722 c0 -72 16 -91 78 -90 l42 0 0 74 c0 43 -4 74 -10 74 -5 0
-10 -22 -10 -49 0 -32 -6 -55 -16 -65 -31 -31 -58 -11 -59 46 -2 62 -4 68 -15
68 -6 0 -10 -26 -10 -58z"/>
<path d="M932 1764 c-24 -17 -30 -62 -10 -82 9 -9 7 -16 -7 -32 -16 -18 -16
-20 -2 -20 9 0 22 9 29 20 7 11 23 20 35 20 16 0 23 -6 23 -20 0 -11 5 -20 10
-20 6 0 10 32 10 75 l0 75 -33 0 c-18 0 -43 -7 -55 -16z m68 -39 c0 -21 -5
-25 -29 -25 -17 0 -33 5 -36 10 -13 21 4 40 35 40 25 0 30 -4 30 -25z"/>
<path d="M1130 1760 c-13 -13 -20 -33 -20 -59 0 -22 -4 -43 -10 -46 -16 -10
-12 -55 5 -55 8 0 15 7 15 15 0 12 13 15 55 15 42 0 55 -3 55 -15 0 -8 5 -15
11 -15 13 0 4 96 -13 139 -17 46 -63 56 -98 21z m75 -60 c0 -43 -1 -45 -32
-48 -33 -3 -33 -3 -33 41 0 51 6 59 40 55 23 -3 25 -7 25 -48z"/>
<path d="M1270 1721 c0 -74 14 -91 76 -91 l44 0 0 75 c0 43 -4 75 -10 75 -5 0
-10 -22 -10 -49 0 -32 -6 -55 -16 -65 -18 -18 -17 -18 -38 -10 -11 4 -16 19
-16 49 0 48 -8 75 -21 75 -5 0 -9 -27 -9 -59z"/>
<path d="M1433 1773 c-28 -11 -12 -29 22 -25 27 3 35 1 35 -12 0 -11 -9 -16
-30 -16 -16 0 -30 -4 -30 -10 0 -5 3 -10 8 -11 23 -2 56 -10 61 -14 3 -3 -3
-13 -12 -22 -13 -13 -21 -14 -41 -5 -28 12 -41 5 -25 -15 6 -7 26 -13 45 -13
39 0 69 33 54 60 -5 9 -7 26 -4 37 10 37 -39 64 -83 46z"/>
<path d="M1567 1762 c-19 -21 -24 -132 -7 -132 6 0 10 9 10 20 0 17 7 20 40
20 33 0 40 -3 40 -20 0 -11 5 -20 10 -20 6 0 10 26 10 59 0 51 -3 62 -22 75
-30 21 -61 20 -81 -2z m78 -32 c9 -28 -2 -40 -35 -40 -33 0 -44 12 -35 40 4
14 15 20 35 20 20 0 31 -6 35 -20z"/>
<path d="M1700 1727 c0 -75 18 -97 81 -97 l50 0 -3 72 c-2 46 -7 73 -15 76 -9
3 -13 -12 -13 -52 0 -46 -4 -57 -21 -66 -33 -18 -49 4 -49 66 0 41 -4 54 -15
54 -11 0 -15 -13 -15 -53z"/>
<path d="M1860 1705 c0 -57 3 -76 13 -72 6 2 12 15 12 28 0 20 6 24 38 27 36
3 37 2 37 -28 0 -21 4 -30 13 -27 16 5 16 139 -1 145 -8 2 -12 -8 -12 -28 0
-30 -1 -31 -37 -28 -33 3 -38 6 -38 27 0 13 -6 26 -12 28 -10 4 -13 -15 -13
-72z"/>
<path d="M2037 1762 c-19 -21 -24 -132 -7 -132 6 0 10 9 10 20 0 17 7 20 40
20 33 0 40 -3 40 -20 0 -11 5 -20 10 -20 6 0 10 26 10 59 0 51 -3 62 -22 75
-30 21 -61 20 -81 -2z m76 -34 c8 -30 1 -38 -33 -38 -33 0 -44 12 -35 40 9 29
61 28 68 -2z"/>
<path d="M1786 1520 c-39 -12 -66 -38 -87 -85 -17 -36 -19 -72 -19 -392 l0
-353 -25 0 c-23 0 -25 -4 -25 -45 0 -41 2 -45 25 -45 l25 0 0 -215 0 -215 45
0 45 0 0 215 0 215 135 0 135 0 2 -212 3 -213 43 -3 42 -3 0 608 c0 370 -4
622 -10 644 -13 45 -54 84 -105 98 -47 13 -187 13 -229 1z m229 -105 l25 -24
0 -351 0 -350 -135 0 -135 0 0 350 0 351 25 24 c22 23 32 25 110 25 78 0 88
-2 110 -25z"/>
<path d="M190 845 l0 -675 335 0 335 0 0 675 0 675 -42 0 -43 0 0 -627 0 -628
-97 -3 -98 -3 0 196 0 195 -45 0 -45 0 0 -195 0 -195 -105 0 c-63 0 -105 4
-105 10 0 6 37 10 90 10 l90 0 0 185 0 185 -96 0 c-61 0 -93 4 -89 10 4 6 67
10 156 10 l149 0 0 95 0 94 -150 3 c-200 4 -203 21 -5 28 l150 5 3 92 3 92
-152 3 c-109 2 -154 6 -156 15 -3 9 33 13 149 15 l153 3 3 92 3 92 -151 3
c-200 4 -203 21 -5 28 l150 5 3 93 3 92 -196 0 -195 0 0 -675z m240 645 c0 -5
-4 -10 -10 -10 -5 0 -10 5 -10 10 0 6 5 10 10 10 6 0 10 -4 10 -10z m0 -220
c0 -5 -4 -10 -10 -10 -5 0 -10 5 -10 10 0 6 5 10 10 10 6 0 10 -4 10 -10z m-4
-237 c-10 -10 -19 5 -10 18 6 11 8 11 12 0 2 -7 1 -15 -2 -18z m4 -213 c0 -5
-4 -10 -10 -10 -5 0 -10 5 -10 10 0 6 5 10 10 10 6 0 10 -4 10 -10z m-40 -220
c0 -5 -4 -10 -10 -10 -5 0 -10 5 -10 10 0 6 5 10 10 10 6 0 10 -4 10 -10z"/>
<path d="M1048 1108 l-3 -413 -27 -3 c-23 -3 -26 -7 -23 -35 2 -18 4 -38 4
-44 1 -7 12 -13 26 -13 l25 0 0 -216 0 -215 43 3 42 3 0 213 0 214 103 -4 c99
-3 105 -4 127 -31 36 -41 45 -89 45 -250 l0 -148 43 3 42 3 3 150 c3 183 -8
243 -53 290 -30 33 -32 36 -15 48 10 7 29 30 42 52 23 40 23 42 26 423 l3 382
-45 0 -45 0 -3 -367 c-3 -333 -5 -371 -21 -401 -25 -45 -69 -62 -167 -62 l-80
0 0 415 0 415 -45 0 -45 0 -2 -412z"/>
</g>
</svg>
